<svg width="24" height="25" viewBox="0 0 24 25" fill="none" xmlns="http://www.w3.org/2000/svg">
<path fill-rule="evenodd" clip-rule="evenodd" d="M15.1265 13.3344V24.8568H9.46131V13.3344H15.1265ZM6.62874 17.9434V24.8568H0.963501V17.9434H6.62874ZM23.6244 8.72552V24.8568H17.9592V8.72552H23.6244ZM13.7102 14.8707H10.8776V23.3204H13.7102V14.8707ZM5.21186 19.4797H2.37924V23.3205H5.21186V19.4797ZM22.2081 10.2618H19.3755V23.3205H22.2081V10.2618ZM20.0836 0.275757V6.42101H18.6673V2.89824L12.2939 9.81182L8.75314 5.97103L5.7131 9.26865L4.71162 8.18231L8.75314 3.79836L12.2939 7.63914L17.6646 1.81207H14.4184V0.275757H20.0836Z" fill="#0AD9C6"/>
</svg>
