<svg width="22" height="22" viewBox="0 0 22 22" fill="none" xmlns="http://www.w3.org/2000/svg">
<path fill-rule="evenodd" clip-rule="evenodd" d="M21.1842 9.64588L19.9678 9.41178C19.2515 9.27411 18.6646 8.78683 18.3987 8.10745C18.1318 7.42883 18.2302 6.67245 18.6619 6.08405L19.4257 5.04222C19.5392 4.88783 19.5225 4.67317 19.3868 4.53745L17.7372 2.88778C17.6053 2.75595 17.3984 2.73611 17.244 2.84072L16.2182 3.53528C15.8642 3.77483 15.4567 3.90161 15.0387 3.90161C13.9835 3.90161 13.102 3.14678 12.9413 2.10611L12.745 0.829388C12.7165 0.64 12.5532 0.5 12.3612 0.5H10.0278C9.8415 0.5 9.68089 0.632611 9.64589 0.815778L9.34372 2.38728C9.15239 3.38245 8.27584 4.10461 7.26045 4.10461C6.84239 4.10461 6.43405 3.97822 6.08095 3.73867L4.756 2.84111C4.60162 2.73688 4.39472 2.75633 4.26289 2.88817L2.61284 4.53783C2.47712 4.67355 2.46078 4.88783 2.57395 5.043L3.33772 6.08483C3.769 6.67283 3.86739 7.42922 3.601 8.10822C3.33422 8.78683 2.74778 9.2745 2.03145 9.41217L0.815002 9.64628C0.632224 9.68089 0.500002 9.8415 0.500002 10.0278V12.3611C0.500002 12.5528 0.640002 12.7162 0.82978 12.7453L2.1065 12.9417C2.82712 13.0525 3.43184 13.5177 3.72312 14.1862C4.01478 14.855 3.94478 15.6145 3.53567 16.2185L2.84112 17.2443C2.7365 17.3983 2.75634 17.6057 2.88817 17.7375L4.53784 19.3872C4.67355 19.5225 4.88745 19.54 5.04262 19.426L6.08445 18.6623C6.45155 18.3932 6.88167 18.2505 7.32772 18.2505C8.34389 18.2505 9.22045 18.9727 9.41178 19.9678L9.64589 21.1846C9.68089 21.3673 9.8415 21.5 10.0278 21.5H12.3612C12.5532 21.5 12.7162 21.36 12.7453 21.1702L12.8834 20.2723C13.0647 19.0932 14.0762 18.4764 14.9818 18.4764C15.4275 18.4764 15.8568 18.6187 16.2247 18.8886L16.9574 19.4257C17.1125 19.5396 17.3268 19.5221 17.4622 19.3868L19.1118 17.7372C19.2437 17.6053 19.2635 17.3983 19.1589 17.244L18.4643 16.2181C18.0552 15.6142 17.9852 14.8547 18.2769 14.1858C18.5685 13.5173 19.1728 13.0522 19.8935 12.9413L21.1702 12.745C21.36 12.7162 21.5 12.5528 21.5 12.3611V10.0278C21.5 9.8415 21.3678 9.68089 21.1842 9.64588ZM14.5 11.1945C14.5 13.0172 13.0172 14.5 11.1944 14.5C9.37172 14.5 7.88888 13.0172 7.88888 11.1945C7.88888 9.37173 9.37172 7.88889 11.1944 7.88889C13.0172 7.88889 14.5 9.37173 14.5 11.1945Z" fill="white"/>
</svg>
